<svg width="500" height="300" viewBox="0 0 500 300" fill="none" xmlns="http://www.w3.org/2000/svg">
<rect width="500" height="300" fill="#FFFEFE"/>
<rect x="250" width="250" height="300" fill="#FFFEFE"/>
<rect x="350" y="250" width="50" height="50" rx="25" transform="rotate(90 350 250)" fill="#2F2F2F"/>
<rect x="100" y="250" width="50" height="50" rx="25" transform="rotate(90 100 250)" fill="#2F2F2F"/>
<path d="M300 200L300 250L350 250L350 200L300 200Z" fill="#D6282B"/>
<path d="M50 200L50 250L100 250L100 200L50 200Z" fill="#D6282B"/>
<path d="M450 50L450 100L500 100L500 50L450 50Z" fill="#D6282B"/>
<path d="M200 50L200 100L250 100L250 50L200 50Z" fill="#D6282B"/>
<path d="M450 300L500 300L500 250L450 250L450 300Z" fill="#2F2F2F"/>
<path d="M200 300L250 300L250 250L200 250L200 300Z" fill="#2F2F2F"/>
<path d="M400 100L400 150L350 150L350 100L400 100Z" fill="#FA9E40"/>
<path d="M150 100L150 150L100 150L100 100L150 100Z" fill="#FA9E40"/>
<rect x="500" y="250" width="50" height="50" rx="25" transform="rotate(180 500 250)" fill="#D6282B"/>
<rect x="250" y="250" width="50" height="50" rx="25" transform="rotate(180 250 250)" fill="#D6282B"/>
<path d="M500 200L450 200L450 150V150C477.614 150 500 172.386 500 200V200Z" fill="#FA9E40"/>
<path d="M250 200L200 200L200 150V150C227.614 150 250 172.386 250 200V200Z" fill="#FA9E40"/>
<path d="M450 100L450 150L400 150V150C400 122.386 422.386 100 450 100V100Z" fill="#FA9E40"/>
<path d="M200 100L200 150L150 150V150C150 122.386 172.386 100 200 100V100Z" fill="#FA9E40"/>
<path d="M400 300C372.386 300 350 277.614 350 250V250L400 250L400 300V300Z" fill="#D6282B"/>
<path d="M150 300C122.386 300 100 277.614 100 250V250L150 250L150 300V300Z" fill="#D6282B"/>
<rect x="350" width="50" height="50" rx="25" fill="#2F2F2F"/>
<rect x="100" width="50" height="50" rx="25" fill="#2F2F2F"/>
<path d="M400 100C400 127.614 377.614 150 350 150V150L350 100L400 100V100Z" fill="#D6282B"/>
<path d="M150 100C150 127.614 127.614 150 100 150V150L100 100L150 100V100Z" fill="#D6282B"/>
<path d="M350 150H400V200V200C372.386 200 350 177.614 350 150V150Z" fill="#2F2F2F"/>
<path d="M100 150H150V200V200C122.386 200 100 177.614 100 150V150Z" fill="#2F2F2F"/>
<path d="M400 50L400 100L350 100V100C350 72.3858 372.386 50 400 50V50Z" fill="#FA9E40"/>
<path d="M150 50L150 100L100 100V100C100 72.3858 122.386 50 150 50V50Z" fill="#FA9E40"/>
<path d="M450 150L450 100L500 100V100C500 127.614 477.614 150 450 150V150Z" fill="#2F2F2F"/>
<path d="M200 150L200 100L250 100V100C250 127.614 227.614 150 200 150V150Z" fill="#2F2F2F"/>
<rect x="400" y="250" width="50" height="50" rx="25" transform="rotate(180 400 250)" fill="#FA9E40"/>
<rect x="150" y="250" width="50" height="50" rx="25" transform="rotate(180 150 250)" fill="#FA9E40"/>
<path d="M400 200L400 250L450 250V250C450 222.386 427.614 200 400 200V200Z" fill="#2F2F2F"/>
<path d="M150 200L150 250L200 250V250C200 222.386 177.614 200 150 200V200Z" fill="#2F2F2F"/>
<path d="M450 200L450 150L400 150V150C400 177.614 422.386 200 450 200V200Z" fill="#D6282B"/>
<path d="M200 200L200 150L150 150V150C150 177.614 172.386 200 200 200V200Z" fill="#D6282B"/>
<path d="M250 150H300V200H250V150Z" fill="#D6282B"/>
<path d="M0 150H50V200H0V150Z" fill="#D6282B"/>
<path d="M250 200H300V250H250V200Z" fill="#2F2F2F"/>
<path d="M0 200H50V250H0V200Z" fill="#2F2F2F"/>
<path d="M400 0H450V50H400V0Z" fill="#D6282B"/>
<path d="M150 0H200V50H150V0Z" fill="#D6282B"/>
<path d="M400 50H450V100H400V50Z" fill="#2F2F2F"/>
<path d="M150 50H200V100H150V50Z" fill="#2F2F2F"/>
<path d="M350 200L350 150L300 150L300 200L350 200Z" fill="#FA9E40"/>
<path d="M100 200L100 150L50 150L50 200L100 200Z" fill="#FA9E40"/>
<path d="M350 100L350 50L300 50L300 100L350 100Z" fill="#2F2F2F"/>
<path d="M100 100L100 50L50 50L50 100L100 100Z" fill="#2F2F2F"/>
<path d="M250 250H300V250C300 277.614 277.614 300 250 300V300V250Z" fill="#FA9E40"/>
<path d="M0 250H50V250C50 277.614 27.6142 300 0 300V300L0 250Z" fill="#FA9E40"/>
<path d="M300 200L250 200V200C250 227.614 272.386 250 300 250V250L300 200Z" fill="#FFFEFE"/>
<path d="M50 200L3.8147e-06 200V200C1.40058e-06 227.614 22.3858 250 50 250V250L50 200Z" fill="#FFFEFE"/>
<path d="M300 150C327.614 150 350 172.386 350 200V200L300 200L300 150V150Z" fill="#D6282B"/>
<path d="M50 150C77.6142 150 100 172.386 100 200V200L50 200L50 150V150Z" fill="#D6282B"/>
<path d="M300 150L300 200L250 200V200C250 172.386 272.386 150 300 150V150Z" fill="#2F2F2F"/>
<path d="M50 150L50 200L1.62913e-06 200V200C2.83618e-06 172.386 22.3858 150 50 150V150Z" fill="#2F2F2F"/>
<path d="M350 200L300 200L300 250V250C327.614 250 350 227.614 350 200V200Z" fill="#FA9E40"/>
<path d="M100 200L50 200L50 250V250C77.6142 250 100 227.614 100 200V200Z" fill="#FA9E40"/>
<path d="M300 225L300 200L275 200V200C275 213.807 286.193 225 300 225V225Z" fill="#D6282B"/>
<path d="M50 225L50 200L25 200V200C25 213.807 36.1929 225 50 225V225Z" fill="#D6282B"/>
<path d="M275 200H300V175V175C286.193 175 275 186.193 275 200V200Z" fill="#FA9E40"/>
<path d="M25 200H50V175V175C36.1929 175 25 186.193 25 200V200Z" fill="#FA9E40"/>
<path d="M425 150H450V125V125C436.193 125 425 136.193 425 150V150Z" fill="#FFFEFE"/>
<path d="M175 150H200V125V125C186.193 125 175 136.193 175 150V150Z" fill="#FFFEFE"/>
<path d="M450 175L450 150L425 150V150C425 163.807 436.193 175 450 175V175Z" fill="#2F2F2F"/>
<path d="M200 175L200 150L175 150V150C175 163.807 186.193 175 200 175V175Z" fill="#2F2F2F"/>
<path d="M500 200L450 200L450 150V150C477.614 150 500 172.386 500 200V200Z" fill="#FA9E40"/>
<path d="M250 200L200 200L200 150V150C227.614 150 250 172.386 250 200V200Z" fill="#FA9E40"/>
<path d="M450 100L450 150L400 150V150C400 122.386 422.386 100 450 100V100Z" fill="#FA9E40"/>
<path d="M200 100L200 150L150 150V150C150 122.386 172.386 100 200 100V100Z" fill="#FA9E40"/>
<path d="M450 150L450 100L500 100V100C500 127.614 477.614 150 450 150V150Z" fill="#2F2F2F"/>
<path d="M200 150L200 100L250 100V100C250 127.614 227.614 150 200 150V150Z" fill="#2F2F2F"/>
<path d="M450 200L450 150L400 150V150C400 177.614 422.386 200 450 200V200Z" fill="#D6282B"/>
<path d="M200 200L200 150L150 150V150C150 177.614 172.386 200 200 200V200Z" fill="#D6282B"/>
<path d="M425 150H450V125V125C436.193 125 425 136.193 425 150V150Z" fill="#FFFEFE"/>
<path d="M175 150H200V125V125C186.193 125 175 136.193 175 150V150Z" fill="#FFFEFE"/>
<path d="M450 175L450 150L425 150V150C425 163.807 436.193 175 450 175V175Z" fill="#2F2F2F"/>
<path d="M200 175L200 150L175 150V150C175 163.807 186.193 175 200 175V175Z" fill="#2F2F2F"/>
<path d="M350 100L300 100L300 50V50C327.614 50 350 72.3858 350 100V100Z" fill="#D6282B"/>
<path d="M100 100L50 100L50 50V50C77.6142 50 100 72.3858 100 100V100Z" fill="#D6282B"/>
<path d="M300 0L300 50L250 50V50C250 22.3858 272.386 3.29296e-07 300 0V0Z" fill="#D6282B"/>
<path d="M50 0L50 50L4.41094e-06 50V50C4.08164e-06 22.3858 22.3858 3.29296e-07 50 0V0Z" fill="#D6282B"/>
<path d="M300 50L300 3.8147e-06L350 1.62913e-06V1.62913e-06C350 27.6142 327.614 50 300 50V50Z" fill="#FA9E40"/>
<path d="M50 50L50 3.8147e-06L100 1.62913e-06V1.62913e-06C100 27.6142 77.6142 50 50 50V50Z" fill="#FA9E40"/>
<path d="M300 100L300 50L250 50V50C250 77.6142 272.386 100 300 100V100Z" fill="#2F2F2F"/>
<path d="M50 100L50 50L1.62913e-06 50V50C2.83618e-06 77.6142 22.3858 100 50 100V100Z" fill="#2F2F2F"/>
<path d="M275 50H300V25V25C286.193 25 275 36.1929 275 50V50Z" fill="#2F2F2F"/>
<path d="M25 50H50V25V25C36.1929 25 25 36.1929 25 50V50Z" fill="#2F2F2F"/>
<path d="M300 75L300 50L275 50V50C275 63.8071 286.193 75 300 75V75Z" fill="#FA9E40"/>
<path d="M50 75L50 50L25 50V50C25 63.8071 36.1929 75 50 75V75Z" fill="#FA9E40"/>
<path d="M250 100L250 150L300 150V150C300 122.386 277.614 100 250 100V100Z" fill="#FA9E40"/>
<path d="M0 100L2.18557e-06 150L50 150V150C50 122.386 27.6142 100 0 100V100Z" fill="#FA9E40"/>
<path d="M325 200L300 200L300 225V225C313.807 225 325 213.807 325 200V200Z" fill="#FFFEFE"/>
<path d="M75 200L50 200L50 225V225C63.8071 225 75 213.807 75 200V200Z" fill="#FFFEFE"/>
<path d="M300 175L300 200L325 200V200C325 186.193 313.807 175 300 175V175Z" fill="#2F2F2F"/>
<path d="M50 175L50 200L75 200V200C75 186.193 63.8071 175 50 175V175Z" fill="#2F2F2F"/>
<path d="M500 50L500 3.8147e-06L450 1.62913e-06L450 50L500 50Z" fill="#FA9E40"/>
<path d="M250 50L250 3.8147e-06L200 1.62913e-06L200 50L250 50Z" fill="#FA9E40"/>
<path d="M450 250L400 250L400 300L450 300L450 250Z" fill="#FA9E40"/>
<path d="M200 250L150 250L150 300L200 300L200 250Z" fill="#FA9E40"/>
<path d="M450 -2.18557e-06C477.614 -9.78513e-07 500 22.3858 500 50V50L450 50L450 -2.18557e-06V-2.18557e-06Z" fill="#D6282B"/>
<path d="M200 -2.18557e-06C227.614 -9.78513e-07 250 22.3858 250 50V50L200 50L200 -2.18557e-06V-2.18557e-06Z" fill="#D6282B"/>
<path d="M500 50L450 50L450 100V100C477.614 100 500 77.6142 500 50V50Z" fill="#FA9E40"/>
<path d="M250 50L200 50L200 100V100C227.614 100 250 77.6142 250 50V50Z" fill="#FA9E40"/>
<path d="M450 50L400 50V50C400 77.6142 422.386 100 450 100V100L450 50Z" fill="#FFFEFE"/>
<path d="M200 50L150 50V50C150 77.6142 172.386 100 200 100V100L200 50Z" fill="#FFFEFE"/>
<path d="M400 300C400 272.386 422.386 250 450 250V250L450 300L400 300V300Z" fill="#D6282B"/>
<path d="M150 300C150 272.386 172.386 250 200 250V250L200 300L150 300V300Z" fill="#D6282B"/>
<path d="M475 50L450 50L450 75V75C463.807 75 475 63.8071 475 50V50Z" fill="#FFFEFE"/>
<path d="M225 50L200 50L200 75V75C213.807 75 225 63.8071 225 50V50Z" fill="#FFFEFE"/>
<path d="M375 100L350 100L350 125V125C363.807 125 375 113.807 375 100V100Z" fill="#2F2F2F"/>
<path d="M125 100L100 100L100 125V125C113.807 125 125 113.807 125 100V100Z" fill="#2F2F2F"/>
<path d="M450 25L450 50L475 50V50C475 36.1929 463.807 25 450 25V25Z" fill="#2F2F2F"/>
<path d="M200 25L200 50L225 50V50C225 36.1929 213.807 25 200 25V25Z" fill="#2F2F2F"/>
<path d="M450 0L450 50L400 50V50C400 22.3858 422.386 -1.20706e-06 450 0V0Z" fill="#2F2F2F"/>
<path d="M200 0L200 50L150 50V50C150 22.3858 172.386 -1.20706e-06 200 0V0Z" fill="#2F2F2F"/>
<path d="M450 250L450 300L500 300V300C500 272.386 477.614 250 450 250V250Z" fill="#FA9E40"/>
<path d="M200 250L200 300L250 300V300C250 272.386 227.614 250 200 250V250Z" fill="#FA9E40"/>
<path d="M450 75L450 50L425 50V50C425 63.8071 436.193 75 450 75V75Z" fill="#D6282B"/>
<path d="M200 75L200 50L175 50V50C175 63.8071 186.193 75 200 75V75Z" fill="#D6282B"/>
<path d="M425 50H450V25V25C436.193 25 425 36.1929 425 50V50Z" fill="#FA9E40"/>
<path d="M175 50H200V25V25C186.193 25 175 36.1929 175 50V50Z" fill="#FA9E40"/>
<path d="M450 275L450 300L475 300V300C475 286.193 463.807 275 450 275V275Z" fill="#FFFEFE"/>
<path d="M200 275L200 300L225 300V300C225 286.193 213.807 275 200 275V275Z" fill="#FFFEFE"/>
<path d="M425 300L450 300L450 275V275C436.193 275 425 286.193 425 300V300Z" fill="#2F2F2F"/>
<path d="M175 300L200 300L200 275V275C186.193 275 175 286.193 175 300V300Z" fill="#2F2F2F"/>
<path d="M350 150L350 100L300 100V100C300 127.614 322.386 150 350 150V150Z" fill="#2F2F2F"/>
<path d="M100 150L100 100L50 100V100C50 127.614 72.3858 150 100 150V150Z" fill="#2F2F2F"/>
<path d="M325 100L350 100L350 125V125C336.193 125 325 113.807 325 100V100Z" fill="#FA9E40"/>
<path d="M75 100L100 100L100 125V125C86.1929 125 75 113.807 75 100V100Z" fill="#FA9E40"/>
</svg>
